HIERARCHY
ROOT joint_Root
{
	OFFSET 0.0 0.0 0.0
	CHANNELS 6 Xposition Yposition Zposition Zrotation Xrotation Yrotation 
	JOINT Hips
	{
		OFFSET -17.1583 93.1646 452.98
		CHANNELS 6 Xposition Yposition Zposition Zrotation Xrotation Yrotation 
		JOINT Spine
		{
			OFFSET 15.7357 0.0 0.0
			CHANNELS 6 Xposition Yposition Zposition Zrotation Xrotation Yrotation 
			JOINT Chest
			{
				OFFSET 8.98455 -0.406207 0.0
				CHANNELS 6 Xposition Yposition Zposition Zrotation Xrotation Yrotation 
				JOINT Neck
				{
					OFFSET 16.3773 0.0 0.0
					CHANNELS 6 Xposition Yposition Zposition Zrotation Xrotation Yrotation 
					JOINT Head
					{
						OFFSET 6.45672 0.0 0.0
						CHANNELS 6 Xposition Yposition Zposition Zrotation Xrotation Yrotation 
						End Site
						{
							OFFSET 0.0 0.0 0.0
						}
					}
				}
				JOINT Shoulder_L
				{
					OFFSET 12.9942 -0.242716 4.98039
					CHANNELS 6 Xposition Yposition Zposition Zrotation Xrotation Yrotation 
					JOINT UpperArm_L
					{
						OFFSET 5.34809 0.0 0.0
						CHANNELS 6 Xposition Yposition Zposition Zrotation Xrotation Yrotation 
						JOINT LowerArm_L
						{
							OFFSET 24.3286 1.87007e-05 0.0
							CHANNELS 6 Xposition Yposition Zposition Zrotation Xrotation Yrotation 
							JOINT Hand_L
							{
								OFFSET 22.2916 0.0 0.0
								CHANNELS 6 Xposition Yposition Zposition Zrotation Xrotation Yrotation 
								End Site
								{
									OFFSET 0.0 0.0 0.0
								}
							}
						}
					}
				}
				JOINT Shoulder_R
				{
					OFFSET 12.9945 -0.242716 -4.98039
					CHANNELS 6 Xposition Yposition Zposition Zrotation Xrotation Yrotation 
					JOINT UpperArm_R
					{
						OFFSET -5.34813 0.0 0.0
						CHANNELS 6 Xposition Yposition Zposition Zrotation Xrotation Yrotation 
						JOINT LowerArm_R
						{
							OFFSET -24.3289 0.000322201 0.0
							CHANNELS 6 Xposition Yposition Zposition Zrotation Xrotation Yrotation 
							JOINT Hand_R
							{
								OFFSET -22.2915 -0.000108084 0.0
								CHANNELS 6 Xposition Yposition Zposition Zrotation Xrotation Yrotation 
								End Site
								{
									OFFSET 0.0 0.0 0.0
								}
							}
						}
					}
				}
			}
		}
		JOINT UpperLeg_L
		{
			OFFSET -2.19248 -6.46944 0.0
			CHANNELS 6 Xposition Yposition Zposition Zrotation Xrotation Yrotation 
			JOINT LowerLeg_L
			{
				OFFSET 39.0811 0.0 -1.23785e-05
				CHANNELS 6 Xposition Yposition Zposition Zrotation Xrotation Yrotation 
				JOINT Foot_L
				{
					OFFSET 40.9854 0.0 -1.26872e-05
					CHANNELS 6 Xposition Yposition Zposition Zrotation Xrotation Yrotation 
					JOINT Toes_L
					{
						OFFSET 11.7543 0.0 0.0
						CHANNELS 6 Xposition Yposition Zposition Zrotation Xrotation Yrotation 
						End Site
						{
							OFFSET 0.0 0.0 0.0
						}
					}
				}
			}
		}
		JOINT UpperLeg_R
		{
			OFFSET -2.19251 6.46944 0.0
			CHANNELS 6 Xposition Yposition Zposition Zrotation Xrotation Yrotation 
			JOINT LowerLeg_R
			{
				OFFSET -39.0811 -0.00228153 -0.0401928
				CHANNELS 6 Xposition Yposition Zposition Zrotation Xrotation Yrotation 
				JOINT Foot_R
				{
					OFFSET -40.9854 0.0 0.0
					CHANNELS 6 Xposition Yposition Zposition Zrotation Xrotation Yrotation 
					JOINT Toes_R
					{
						OFFSET -11.7543 0.0 0.0
						CHANNELS 6 Xposition Yposition Zposition Zrotation Xrotation Yrotation 
						End Site
						{
							OFFSET 0.0 0.0 0.0
						}
					}
				}
			}
		}
	}
}
MOTION
Frames:	6
Frame Time:	0.0333333
0.000000 0.000000 0.000000 0.000000 0.000000 -0.000000 150.900000 89.123800 206.506000 87.986000 -55.034400 -3.097140 15.735700 0.000005 -0.000001 39.090600 86.022200 -37.021800 8.984550 -0.406207 -0.000000 -2.638150 -6.360310 3.994270 16.377300 -0.000001 -0.000001 -1.889460 -5.726650 2.238370 6.456720 -0.000001 -0.000000 2.994040 -4.435190 -0.771379 12.994200 -0.242716 4.980390 -91.782100 6.600110 -74.853100 5.348090 -0.000007 -0.000001 -73.473400 10.127900 -4.255090 24.328600 0.000019 0.000005 35.021500 35.114200 -50.619700 22.291600 -0.000001 0.000005 55.379900 4.130170 22.344800 12.994500 -0.242716 -4.980390 88.975900 2.833630 -70.120100 -5.348130 -0.000001 -0.000004 -67.178300 -10.952600 5.454960 -24.328900 0.000322 -0.000009 -0.587524 -11.483800 -2.943290 -22.291500 -0.000108 -0.000004 47.327800 5.376360 -2.186270 -2.192480 -6.469440 -0.000000 -169.598000 -12.849800 -12.696600 39.081100 -0.000007 -0.000012 0.414332 -0.187165 65.689700 40.985400 -0.000006 -0.000013 -12.530400 9.639760 -33.980800 11.754300 -0.000000 0.000003 0.002173 0.054001 -14.386400 -2.192510 6.469440 -0.000001 -164.374000 -0.940259 162.348000 -39.081100 -0.002282 -0.040193 0.139372 -0.240472 29.503100 -40.985400 0.000008 0.000006 12.704900 -3.073420 -69.155100 -11.754300 -0.000006 -0.000006 -0.008512 0.259826 -6.020250
0.000000 0.000000 0.000000 0.000000 0.000000 -0.000000 148.228000 89.643500 209.010000 89.698500 -58.468600 -1.000560 15.735700 0.000005 -0.000001 45.796500 86.426300 -44.221900 8.984550 -0.406207 -0.000000 -2.574210 -5.123530 3.035700 16.377300 -0.000001 -0.000001 -0.869063 -5.237760 2.557300 6.456720 -0.000001 -0.000000 3.605400 -4.255540 -0.537652 12.994200 -0.242716 4.980390 -91.809700 6.485840 -74.373100 5.348090 -0.000007 -0.000001 -74.452600 11.231600 -2.303680 24.328600 0.000019 0.000005 27.140000 38.245700 -39.624200 22.291600 -0.000001 0.000005 53.194600 4.212460 21.122000 12.994500 -0.242716 -4.980390 88.818100 3.299820 -70.281800 -5.348130 -0.000001 -0.000004 -69.864500 -5.063990 1.238990 -24.328900 0.000322 -0.000009 -0.989770 -11.369600 -5.003020 -22.291500 -0.000108 -0.000004 46.016200 5.397350 -2.852590 -2.192480 -6.469440 -0.000000 -170.996000 -12.039400 -17.017100 39.081100 -0.000007 -0.000012 0.369562 -0.143645 68.758800 40.985400 -0.000006 -0.000013 -10.456200 5.729040 -41.178800 11.754300 -0.000000 0.000003 0.002346 0.063828 -13.987900 -2.192510 6.469440 -0.000001 -166.069000 -3.032210 166.589000 -39.081100 -0.002282 -0.040193 0.068937 -0.120279 28.619900 -40.985400 0.000008 0.000006 10.683000 -1.978570 -70.521600 -11.754300 -0.000006 -0.000006 -0.007572 0.252172 -6.332850
0.000000 0.000000 0.000000 0.000000 0.000000 -0.000000 145.782000 90.327100 211.439000 92.278200 -62.612500 1.461990 15.735700 0.000005 -0.000001 54.953600 86.918300 -53.910800 8.984550 -0.406207 -0.000000 -2.688540 -3.633090 2.000870 16.377300 -0.000001 -0.000001 -0.191997 -4.537410 2.675170 6.456720 -0.000001 -0.000000 4.284500 -3.882290 -0.444091 12.994200 -0.242716 4.980390 -91.817000 6.284000 -73.837200 5.348090 -0.000007 -0.000001 -75.433900 9.694330 0.176524 24.328600 0.000019 0.000005 18.319700 38.424400 -28.044500 22.291600 -0.000001 0.000005 50.952500 4.274320 20.185100 12.994500 -0.242716 -4.980390 88.771700 3.501220 -70.654200 -5.348130 -0.000001 -0.000004 -71.790600 0.441559 -2.476120 -24.328900 0.000322 -0.000009 -1.666360 -11.021200 -8.647460 -22.291500 -0.000108 -0.000004 45.206400 5.416860 -3.497930 -2.192480 -6.469440 -0.000000 -173.083000 -10.823300 -20.992300 39.081100 -0.000007 -0.000012 0.251473 -0.098010 68.705900 40.985400 -0.000006 -0.000013 -6.604720 -0.386285 -48.183500 11.754300 -0.000000 0.000003 0.002363 0.065046 -13.938600 -2.192510 6.469440 -0.000001 -168.019000 -6.333130 170.883000 -39.081100 -0.002282 -0.040193 0.021180 -0.036057 26.363900 -40.985400 0.000008 0.000006 9.196350 -0.872417 -70.939500 -11.754300 -0.000006 -0.000006 -0.006854 0.246073 -6.581800
0.000000 0.000000 0.000000 0.000000 0.000000 -0.000000 143.444000 91.063500 213.811000 95.825900 -67.001500 4.548930 15.735700 0.000005 -0.000001 67.205800 87.360800 -66.642300 8.984550 -0.406207 -0.000000 -2.890120 -2.096560 1.074190 16.377300 -0.000001 -0.000001 0.154490 -3.760060 2.545250 6.456720 -0.000001 -0.000000 4.746960 -3.395460 -0.585088 12.994200 -0.242716 4.980390 -91.882800 6.237630 -73.166800 5.348090 -0.000007 -0.000001 -75.604300 5.922580 3.147610 24.328600 0.000019 0.000005 11.870100 37.414800 -19.081100 22.291600 -0.000001 0.000005 49.087000 4.277580 20.138000 12.994500 -0.242716 -4.980390 88.820900 3.483300 -71.285700 -5.348130 -0.000001 -0.000004 -72.909500 5.100280 -5.870640 -24.328900 0.000322 -0.000009 -2.351900 -10.057700 -13.229900 -22.291500 -0.000108 -0.000004 44.699800 5.428740 -3.896240 -2.192480 -6.469440 -0.000000 -174.989000 -9.319700 -24.070400 39.081100 -0.000007 -0.000012 0.141270 -0.065148 65.240900 40.985400 -0.000006 -0.000013 -3.326010 -6.546900 -53.755000 11.754300 -0.000000 0.000003 0.002401 0.068191 -13.811100 -2.192510 6.469440 -0.000001 -169.751000 -11.179000 175.226000 -39.081100 -0.002282 -0.040193 0.014681 -0.026905 22.899600 -40.985400 0.000008 0.000006 8.730740 -1.247210 -70.508500 -11.754300 -0.000006 -0.000006 -0.005958 0.238117 -6.906390
0.000000 0.000000 0.000000 0.000000 0.000000 -0.000000 141.207000 91.759900 216.091000 99.632100 -71.856300 7.546830 15.735700 0.000005 -0.000001 85.667800 87.697300 -85.391000 8.984550 -0.406207 -0.000000 -3.172840 -0.374139 0.543389 16.377300 -0.000001 -0.000001 0.183898 -2.854890 2.347510 6.456720 -0.000001 -0.000000 4.725320 -2.787840 -0.879139 12.994200 -0.242716 4.980390 -92.024400 6.412410 -72.438400 5.348090 -0.000007 -0.000001 -74.523800 1.193950 7.074660 24.328600 0.000019 0.000005 8.514130 34.700500 -14.732800 22.291600 -0.000001 0.000005 46.319300 4.233370 20.810200 12.994500 -0.242716 -4.980390 88.815200 3.636940 -71.941600 -5.348130 -0.000001 -0.000004 -72.839500 9.568940 -9.242760 -24.328900 0.000322 -0.000009 -2.960290 -9.042890 -18.209200 -22.291500 -0.000108 -0.000004 44.762300 5.446400 -4.511710 -2.192480 -6.469440 -0.000000 -175.880000 -8.357570 -26.086000 39.081100 -0.000007 -0.000012 0.100709 -0.062131 58.325900 40.985400 -0.000006 -0.000013 -2.610940 -10.508500 -56.901200 11.754300 -0.000000 0.000003 0.002393 0.067463 -13.840500 -2.192510 6.469440 -0.000001 -171.333000 -14.253400 178.889000 -39.081100 -0.002282 -0.040193 0.007397 -0.011721 19.168100 -40.985400 0.000008 0.000006 8.784090 0.343182 -69.355300 -11.754300 -0.000006 -0.000006 -0.002701 0.204844 -8.261720
0.000000 0.000000 0.000000 0.000000 0.000000 -0.000000 138.897000 92.331600 218.333000 103.737000 -76.327500 10.965600 15.735700 0.000005 -0.000001 102.957000 87.701500 -102.745000 8.984550 -0.406207 -0.000000 -3.288220 1.009740 0.453504 16.377300 -0.000001 -0.000001 -0.062538 -1.921510 1.910880 6.456720 -0.000001 -0.000000 4.389430 -2.010890 -1.315070 12.994200 -0.242716 4.980390 -92.218800 6.736070 -71.720800 5.348090 -0.000007 -0.000001 -72.528100 -3.899690 11.775400 24.328600 0.000019 0.000005 7.187810 30.812200 -13.831500 22.291600 -0.000001 0.000005 45.088100 4.220090 21.010000 12.994500 -0.242716 -4.980390 88.855100 3.675010 -72.682700 -5.348130 -0.000001 -0.000004 -72.332200 12.509100 -12.359700 -24.328900 0.000322 -0.000009 -2.778800 -6.431580 -23.424800 -22.291500 -0.000108 -0.000004 44.597400 5.436900 -4.177740 -2.192480 -6.469440 -0.000000 -175.975000 -7.433980 -26.570300 39.081100 -0.000007 -0.000012 0.087281 -0.077154 48.523100 40.985400 -0.000006 -0.000013 -3.479260 -11.323000 -58.659800 11.754300 -0.000000 0.000003 0.002457 0.074627 -13.550100 -2.192510 6.469440 -0.000001 -173.139000 -13.895600 -177.893000 -39.081100 -0.002282 -0.040193 0.002274 0.003795 15.538800 -40.985400 0.000008 0.000006 8.636590 4.975730 -68.242800 -11.754300 -0.000006 -0.000006 -0.001152 0.185205 -9.060310
